# xmcd
#
# Track frame offsets:
#	150
#	14797
#	29884
#	45860
#	62640
#	82829
#	101580
#	116033
#	133107
#	150658
#	165369
#	183871
#	197499
#
# Disc length: 2843 seconds
#
# Revision: 0
# Processed by: cddbd v1.5.2PL0 Copyright (c) Steve Scherf et al.
# Submitted via: EasyCDDAExtractor 16.0.8.1
#
DISCID=a20b190d
DTITLE=Padre Alessandro Campos - O Que É Que Eu Sou Sem Jesus?
DYEAR=2014
DGENRE=Gospel
TTITLE0=O Que É Que Eu Sou Sem Jesus? (Nada, Nada, Nada)
TTITLE1=No Dia em que Saí de Casa
TTITLE2=Meu Velho Pai
TTITLE3=Maria
TTITLE4=Esse É o Meu Deus
TTITLE5=Deus Está Aqui (Noites Traiçoeiras)
TTITLE6=O Milagre de Tambaú
TTITLE7=Chico Mineiro
TTITLE8=Caboclo na Cidade
TTITLE9=O Ipê e o Prisioneiro (Ipê Florido)
TTITLE10=O Último Julgamento
TTITLE11=Alô, Meu Deus
TTITLE12=Vida Nova
EXTD=
EXTT0=
EXTT1=
EXTT2=
EXTT3=
EXTT4=
EXTT5=
EXTT6=
EXTT7=
EXTT8=
EXTT9=
EXTT10=
EXTT11=
EXTT12=
PLAYORDER=
